<svg xmlns="http://www.w3.org/2000/svg" viewBox="0 0 400 300"><g id="_255_rain_flatline" data-name="#255_rain_flatline"><rect x="27.9" y="30.75" width="343.78" height="238.5" fill="#fff"/><path d="M371.68,30.75v238.5H27.9V30.75H371.68m0-1H27.9a1,1,0,0,0-1,1v238.5a1,1,0,0,0,1,1H371.68a1,1,0,0,0,1-1V30.75a1,1,0,0,0-1-1Z" fill="#231f20"/><path d="M309.93,261a52.95,52.95,0,0,0-97.34,0Z" fill="#231f20"/><path d="M261.26,228.86A52.94,52.94,0,0,1,309.93,261H212.59a52.94,52.94,0,0,1,48.67-32.1m0-1a53.91,53.91,0,0,0-49.59,32.7,1,1,0,0,0,.92,1.4h97.34a1,1,0,0,0,.92-1.4,53.92,53.92,0,0,0-49.59-32.7Z" fill="#231f20"/><path d="M289.6,261.46H232.92a.51.51,0,0,1-.49-.62c4.75-19,22-33.48,28.83-33.48s24.08,14.47,28.83,33.48a.53.53,0,0,1-.09.42A.49.49,0,0,1,289.6,261.46Zm-56-1H289c-4.85-18.27-21.21-32.1-27.7-32.1S238.41,242.19,233.56,260.46Z" fill="#fff"/><path d="M261.26,261.46a.5.5,0,0,1-.5-.5v-32.9a.5.5,0,0,1,1,0V261A.5.5,0,0,1,261.26,261.46Z" fill="#fff"/><path d="M196.51,257.82a52.95,52.95,0,0,0-97.34,0Z" fill="#231f20"/><path d="M147.84,225.72a53,53,0,0,1,48.67,32.1H99.17a53,53,0,0,1,48.67-32.1m0-1a53.91,53.91,0,0,0-49.59,32.7,1,1,0,0,0,.92,1.4h97.34a1,1,0,0,0,.92-1.4,53.91,53.91,0,0,0-49.59-32.7Z" fill="#231f20"/><path d="M176.18,258.32H119.5a.5.5,0,0,1-.49-.62c4.75-19,22-33.48,28.83-33.48s24.08,14.48,28.83,33.48a.5.5,0,0,1-.49.62Zm-56-1h55.4c-4.85-18.27-21.21-32.1-27.7-32.1S125,239.05,120.14,257.32Z" fill="#fff"/><path d="M147.84,258.32a.5.5,0,0,1-.5-.5v-32.9a.5.5,0,0,1,1,0v32.9A.5.5,0,0,1,147.84,258.32Z" fill="#fff"/><path d="M119.18,269.25H27.9v-52.2a87.31,87.31,0,0,1,91.28,52.2Z" fill="#231f20"/><path d="M39,216.35a87.26,87.26,0,0,1,80.22,52.9H27.9v-52.2a87.69,87.69,0,0,1,11.06-.7m0-1a89.07,89.07,0,0,0-11.19.71,1,1,0,0,0-.87,1v52.2a1,1,0,0,0,1,1h91.28a1,1,0,0,0,.92-1.39A88.19,88.19,0,0,0,39,215.35Z" fill="#231f20"/><path d="M85.68,269.75a.51.51,0,0,1-.49-.38C77.61,239,49.92,215.85,39,215.85c-2.48,0-6.05,2.15-10.18,4.63l-.62.38a.5.5,0,0,1-.69-.17.51.51,0,0,1,.17-.69l.63-.37c4.26-2.57,7.93-4.78,10.69-4.78,11.22,0,39.51,23.47,47.21,54.28a.5.5,0,0,1-.37.6A.25.25,0,0,1,85.68,269.75Z" fill="#fff"/><path d="M39,269.75a.5.5,0,0,1-.5-.5V216.08a.5.5,0,0,1,1,0v53.17A.5.5,0,0,1,39,269.75Z" fill="#fff"/><path d="M371.68,217.05v52.2H280.4a87.31,87.31,0,0,1,91.28-52.2Z" fill="#231f20"/><path d="M360.62,216.35a87.69,87.69,0,0,1,11.06.7v52.2H280.4a87.26,87.26,0,0,1,80.22-52.9m0-1a88.19,88.19,0,0,0-81.14,53.51,1,1,0,0,0,.92,1.39h91.28a1,1,0,0,0,1-1v-52.2a1,1,0,0,0-.87-1,89.07,89.07,0,0,0-11.19-.71Z" fill="#231f20"/><path d="M313.9,269.75a.25.25,0,0,1-.12,0,.48.48,0,0,1-.36-.6c7.69-30.81,36-54.28,47.2-54.28,2.76,0,6.43,2.21,10.69,4.78l.63.37a.51.51,0,0,1,.17.69.5.5,0,0,1-.69.17l-.62-.38c-4.13-2.48-7.7-4.63-10.18-4.63-11,0-38.65,23.14-46.23,53.52A.51.51,0,0,1,313.9,269.75Z" fill="#fff"/><path d="M360.62,269.75a.5.5,0,0,1-.5-.5V215.08a.5.5,0,0,1,1,0v54.17A.5.5,0,0,1,360.62,269.75Z" fill="#fff"/><path d="M151.41,269.49c-10.27-27.84-34-47.35-61.76-47.35S38.17,241.65,27.9,269.49Z" fill="#4ea0ae"/><path d="M151.41,270H27.9a.49.49,0,0,1-.41-.22.53.53,0,0,1-.06-.46c10.68-29,35.11-47.67,62.22-47.67s51.54,18.71,62.23,47.67a.53.53,0,0,1-.06.46A.5.5,0,0,1,151.41,270ZM28.62,269H150.69c-10.67-28.18-34.55-46.35-61-46.35S39.28,240.81,28.62,269Z" fill="#231f20"/><path d="M125.62,269.49c-6-27.84-27.68-47.35-36-47.35s-30,19.51-36,47.35Z" fill="#4ea0ae"/><path d="M125.62,270H53.69a.51.51,0,0,1-.39-.19.53.53,0,0,1-.1-.42c5.92-27.58,27.48-47.74,36.45-47.74s30.53,20.16,36.46,47.74a.5.5,0,0,1-.11.42A.47.47,0,0,1,125.62,270Zm-71.31-1H125c-5.91-26.36-26.93-46.35-35.34-46.35S60.22,242.63,54.31,269Z" fill="#231f20"/><path d="M89.65,270a.51.51,0,0,1-.5-.5v-53a.5.5,0,0,1,.5-.5.5.5,0,0,1,.5.5v53A.5.5,0,0,1,89.65,270Z" fill="#231f20"/><path d="M371.68,269.49c-10.27-27.84-34.05-47.35-61.75-47.35s-51.49,19.51-61.76,47.35Z" fill="#4ea0ae"/><path d="M371.68,270H248.17a.5.5,0,0,1-.41-.22.5.5,0,0,1,0-.46c10.68-29,35.1-47.67,62.22-47.67s51.54,18.71,62.22,47.67a.5.5,0,0,1-.06.46A.49.49,0,0,1,371.68,270Zm-122.79-1H371c-10.66-28.18-34.55-46.35-61-46.35S259.56,240.81,248.89,269Z" fill="#231f20"/><path d="M345.89,269.49c-6-27.84-27.67-47.35-36-47.35s-30,19.51-36,47.35Z" fill="#4ea0ae"/><path d="M345.89,270H274a.47.47,0,0,1-.38-.19.5.5,0,0,1-.11-.42c5.93-27.58,27.49-47.74,36.46-47.74s30.53,20.16,36.45,47.74a.53.53,0,0,1-.1.42A.51.51,0,0,1,345.89,270Zm-71.3-1h70.68c-5.91-26.36-26.94-46.35-35.34-46.35S280.5,242.63,274.59,269Z" fill="#231f20"/><path d="M309.93,270a.5.5,0,0,1-.5-.5v-53a.5.5,0,0,1,.5-.5.5.5,0,0,1,.5.5v53A.51.51,0,0,1,309.93,270Z" fill="#231f20"/><path d="M262.47,269.49a67.18,67.18,0,0,0-123.51,0Z" fill="#4ea0ae"/><path d="M262.47,270H139a.49.49,0,0,1-.41-.23.49.49,0,0,1-.05-.47,67.68,67.68,0,0,1,124.43,0,.5.5,0,0,1-.46.7Zm-122.74-1h122a66.68,66.68,0,0,0-122,0Z" fill="#231f20"/><path d="M236.68,269.49c-6-24-27.67-40.73-36-40.73s-30,16.78-36,40.73Z" fill="#4ea0ae"/><path d="M236.68,270H164.75a.47.47,0,0,1-.39-.2.46.46,0,0,1-.09-.42c5.93-23.75,27.48-41.11,36.45-41.11s30.51,17.36,36.44,41.11a.46.46,0,0,1-.09.42A.47.47,0,0,1,236.68,270Zm-71.28-1H236c-3.61-13.78-12.06-23.74-16.82-28.49-6.63-6.62-14.24-11.24-18.49-11.24C192.32,229.26,171.34,246.39,165.4,269Z" fill="#231f20"/><path d="M200.72,270a.5.5,0,0,1-.5-.5V223.94a.5.5,0,0,1,.5-.5.5.5,0,0,1,.5.5v45.55A.51.51,0,0,1,200.72,270Z" fill="#231f20"/><path d="M39,216.35a.5.5,0,0,1-.5-.5v-3a.5.5,0,0,1,1,0v3A.5.5,0,0,1,39,216.35Z" fill="#231f20"/><path d="M147.84,224.92a.5.5,0,0,1-.5-.5v-3a.5.5,0,0,1,1,0v3A.5.5,0,0,1,147.84,224.92Z" fill="#231f20"/><path d="M261.26,228.38a.5.5,0,0,1-.5-.5v-3a.5.5,0,1,1,1,0v3A.5.5,0,0,1,261.26,228.38Z" fill="#231f20"/><path d="M360.62,215.79a.5.5,0,0,1-.5-.5v-3a.5.5,0,0,1,1,0v3A.5.5,0,0,1,360.62,215.79Z" fill="#231f20"/><path d="M59.84,91.75A22,22,0,0,1,44,85.59a.5.5,0,0,1,0-.71.5.5,0,0,1,.7,0c5.39,5.51,14.86,7.33,23.55,4.53a32.1,32.1,0,0,0,21-22.66.49.49,0,0,1,.6-.37.5.5,0,0,1,.37.6A33.08,33.08,0,0,1,68.52,90.37,28.44,28.44,0,0,1,59.84,91.75Z" fill="#231f20"/><path d="M27.9,121.85a.5.5,0,0,1-.07-1c.3,0,29.56-4.23,38.44-30.64a.5.5,0,0,1,.85-.17c.17.19,17.51,19.2,38.28,5S118.81,66,118.74,65.83a.48.48,0,0,1,.13-.61.48.48,0,0,1,.63,0c.32.26,7.83,6.31,19.12-4.48a.5.5,0,0,1,.69.72h0s-.13.27.16,1.24c1.14,3.81,6.91,12.49,12.14,14.84,11.61,5.2,22.32,3.55,32.73-5a.51.51,0,0,1,.59,0,.5.5,0,0,1,.22.55,5.55,5.55,0,0,0,.86,4.54c2,3.2,6.72,5.73,10.07,6.33a15.56,15.56,0,0,0,14.47-5.29.48.48,0,0,1,.41-.18.5.5,0,0,1,.38.22,30,30,0,0,0,26,12.66c13-.77,21.84-10.74,28.07-19.33a.49.49,0,0,1,.69-.12,16.27,16.27,0,0,0,20-1.78.53.53,0,0,1,.42-.15.52.52,0,0,1,.37.24c2.7,4.48,5.5,9.1,9.28,12.83C308,94.65,329.46,95.27,344,84.35a.5.5,0,0,1,.46-.07.51.51,0,0,1,.32.32c3.42,11,15.88,18.5,27.21,16.29a.5.5,0,0,1,.59.4.49.49,0,0,1-.39.58c-11.59,2.25-24.3-5.17-28.15-16.31-14.92,10.77-36.58,10-48.61-1.87C291.73,80,289,75.56,286.32,71.2a17.13,17.13,0,0,1-20.4,1.73c-6.35,8.69-15.31,18.58-28.54,19.36a31.07,31.07,0,0,1-26.49-12.57,16.54,16.54,0,0,1-15,5.14c-3.57-.63-8.56-3.34-10.75-6.78a6.85,6.85,0,0,1-1.18-4c-10.31,8-21.33,9.51-32.78,4.38-5.81-2.61-12.12-12.31-12.85-16.1-8.74,7.78-15.45,5.84-18.17,4.46C121.54,71,123.69,83.74,106,95.86,86.62,109.1,70.2,94.53,67,91.31c-9.39,26.33-38.69,30.5-39,30.54Z" fill="#231f20"/><path d="M259.12,71.82a24.58,24.58,0,0,1-17.93-7.25.49.49,0,0,1,0-.7.5.5,0,0,1,.71,0c5.67,6,15.13,8.38,24.1,6,7.71-2,15.12-7.37,20.88-15.1a.5.5,0,1,1,.8.59c-5.89,7.92-13.5,13.42-21.43,15.48A28.28,28.28,0,0,1,259.12,71.82Z" fill="#231f20"/><path d="M146.56,63.56a26.66,26.66,0,0,1-6.49-.77c-6.95-1.75-12.49-7-13.8-13a.5.5,0,0,1,1-.21c1.23,5.66,6.47,10.58,13.06,12.24,5.31,1.33,11.47.87,18.84-1.43a.5.5,0,0,1,.62.33.48.48,0,0,1-.33.62A43.46,43.46,0,0,1,146.56,63.56Z" fill="#231f20"/><path d="M75.4,68a52.26,52.26,0,0,1-7.52-.57c-2.07-.3-4.95-1-6.1-3.26a.5.5,0,0,1,.22-.67.51.51,0,0,1,.68.22C63.6,65.57,66,66.14,68,66.43c7.23,1,13.71.61,19.23-1.3,6.53-2.27,11.74-6.71,14.31-12.2.52-1.11,1-2.31,1.38-3.47a22.66,22.66,0,0,1,3.1-6.37.5.5,0,0,1,.7-.08.5.5,0,0,1,.09.7,21.65,21.65,0,0,0-3,6.09c-.43,1.18-.87,2.4-1.41,3.56-2.69,5.72-8.11,10.36-14.89,12.71A37,37,0,0,1,75.4,68Z" fill="#231f20"/><path d="M350.79,86.58a19.6,19.6,0,0,1-7.72-1.64c-5.18-2.22-9.4-6.24-13.19-10.26a.5.5,0,0,1,0-.71.49.49,0,0,1,.7,0c3.72,3.94,7.85,7.89,12.86,10,4.31,1.85,10.61,2.6,15.38-.86a.5.5,0,0,1,.7.11.51.51,0,0,1-.11.7A14.69,14.69,0,0,1,350.79,86.58Z" fill="#231f20"/><path d="M356.32,137.46c-1,0-2.09-.06-3.19-.17a46.13,46.13,0,0,1-27.46-12.76c-4.06,3.45-8.46,6.89-13.62,8.4a14,14,0,0,1-14.23-3.28,44.7,44.7,0,0,1-13-20.82c-8.6,8.13-17.22,12.43-25.65,12.79-9.33.4-20-5.64-21.88-15.35a36.87,36.87,0,0,1-65.61-6.21,18.81,18.81,0,0,1-26.51-1,12.69,12.69,0,0,1-7.66,7.55,12.55,12.55,0,0,1-10.93-.67c-1.66,5.11-4.93,11.69-11.2,15.4-6.95,4.1-15.67,2.67-20.22-3.2C89.25,127.56,79.3,133.39,69,133.45h-.15a31,31,0,0,1-26.64-16,.5.5,0,0,1,.89-.47,30,30,0,0,0,25.75,15.43H69c10.18-.06,20-6,25.7-15.43a.49.49,0,0,1,.41-.25.53.53,0,0,1,.43.22c4.1,6,12.59,7.49,19.33,3.52,6.26-3.7,9.41-10.45,11-15.46a.49.49,0,0,1,.31-.32.48.48,0,0,1,.45.06,12.21,12.21,0,0,0,17.88-6.87.49.49,0,0,1,.38-.38.5.5,0,0,1,.5.19,17.7,17.7,0,0,0,26.14,1.08.47.47,0,0,1,.46-.16.5.5,0,0,1,.38.32,35.88,35.88,0,0,0,64.82,5.61.5.5,0,0,1,.93.2c.84,8,9.49,16.32,21,15.84,8.37-.35,17-4.76,25.6-13.09a.5.5,0,0,1,.48-.12.51.51,0,0,1,.35.35,43.69,43.69,0,0,0,12.93,21.15A13.09,13.09,0,0,0,311.77,132c5.12-1.49,9.52-5,13.59-8.49a.51.51,0,0,1,.68,0,45.18,45.18,0,0,0,27.19,12.8c5.39.54,12.74-.05,17-5.93a.51.51,0,0,1,.7-.11.5.5,0,0,1,.1.7C367.94,135.24,362.88,137.46,356.32,137.46Z" fill="#e6e7e8"/><path d="M325.4,122A26.28,26.28,0,0,1,309,116.42a.5.5,0,0,1,.63-.78c8.68,7,22.38,7.13,31.19.29a.49.49,0,0,1,.7.08.51.51,0,0,1-.09.71A26.16,26.16,0,0,1,325.4,122Z" fill="#e6e7e8"/><path d="M133.28,210.58a.57.57,0,0,1-.28-.08.5.5,0,0,1-.14-.69l73.89-112a.5.5,0,1,1,.84.55L133.7,210.36A.52.52,0,0,1,133.28,210.58Z" fill="#e6e7e8"/><path d="M97.24,203.32a.49.49,0,0,1-.28-.09.5.5,0,0,1-.14-.69L151,121.22a.5.5,0,0,1,.83.56L97.66,203.09A.51.51,0,0,1,97.24,203.32Z" fill="#e6e7e8"/><path d="M73.54,170.28a.47.47,0,0,1-.3-.1.51.51,0,0,1-.1-.7l69.49-90.73a.51.51,0,0,1,.7-.1.5.5,0,0,1,.09.7L73.94,170.09A.53.53,0,0,1,73.54,170.28Z" fill="#e6e7e8"/><path d="M225.07,210.58a.47.47,0,0,1-.3-.1.5.5,0,0,1-.1-.7l84.22-112a.5.5,0,1,1,.8.6L225.47,210.38A.51.51,0,0,1,225.07,210.58Z" fill="#e6e7e8"/><path d="M232.92,146.63a.47.47,0,0,1-.3-.1.5.5,0,0,1-.1-.7c20.17-27,50.29-68.18,50.62-70.8a.47.47,0,0,1,.38-.56.54.54,0,0,1,.6.42c.57,2.46-38.74,55.38-50.8,71.54A.51.51,0,0,1,232.92,146.63Z" fill="#e6e7e8"/><path d="M176.18,188.87a.49.49,0,0,1-.3-.1.51.51,0,0,1-.1-.7l38.75-51.41a.5.5,0,0,1,.8.6l-38.75,51.41A.48.48,0,0,1,176.18,188.87Z" fill="#e6e7e8"/><path d="M306.16,197.87a.47.47,0,0,1-.3-.1.49.49,0,0,1-.1-.7l38.53-51.24a.5.5,0,1,1,.8.6l-38.53,51.24A.48.48,0,0,1,306.16,197.87Z" fill="#e6e7e8"/><path d="M276.87,210.58a.45.45,0,0,1-.31-.11.5.5,0,0,1-.08-.7l25.72-32.23a.5.5,0,1,1,.78.63l-25.72,32.22A.47.47,0,0,1,276.87,210.58Z" fill="#e6e7e8"/><path d="M186.78,216.85a.51.51,0,0,1-.31-.11.5.5,0,0,1-.09-.7l32.9-41.8a.5.5,0,0,1,.79.62l-32.9,41.8A.52.52,0,0,1,186.78,216.85Z" fill="#e6e7e8"/><path d="M70.21,206.88a.55.55,0,0,1-.3-.09.5.5,0,0,1-.1-.7l27-36.61a.51.51,0,0,1,.7-.1.5.5,0,0,1,.1.7l-27,36.6A.51.51,0,0,1,70.21,206.88Z" fill="#e6e7e8"/><path d="M35.3,172.25a.53.53,0,0,1-.3-.09.51.51,0,0,1-.11-.7l44.49-61.19a.5.5,0,1,1,.81.59L35.7,172.05A.51.51,0,0,1,35.3,172.25Z" fill="#e6e7e8"/><path d="M48.25,206.88a.49.49,0,0,1-.41-.78l14-20.27a.49.49,0,0,1,.69-.13.5.5,0,0,1,.13.7l-14,20.27A.49.49,0,0,1,48.25,206.88Z" fill="#e6e7e8"/><path d="M229.76,229.36a.45.45,0,0,1-.31-.11.49.49,0,0,1-.08-.7l22.52-28.11a.5.5,0,1,1,.78.63l-22.52,28.11A.5.5,0,0,1,229.76,229.36Z" fill="#e6e7e8"/><path d="M336.4,194.47a.52.52,0,0,1-.29-.09.51.51,0,0,1-.12-.7l15.64-22.22a.52.52,0,0,1,.7-.12.51.51,0,0,1,.12.7l-15.64,22.21A.5.5,0,0,1,336.4,194.47Z" fill="#e6e7e8"/><path d="M276.87,183.36a.51.51,0,0,1-.31-.11.5.5,0,0,1-.08-.7l37-45.9a.5.5,0,0,1,.78.62l-37,45.9A.48.48,0,0,1,276.87,183.36Z" fill="#e6e7e8"/><path d="M176.18,225.22a.52.52,0,0,1-.44-.25l-2.36-4.29a.51.51,0,0,1,.2-.68.5.5,0,0,1,.68.2l2.36,4.28a.5.5,0,0,1-.2.68A.5.5,0,0,1,176.18,225.22Z" fill="#e6e7e8"/><path d="M103.5,223.27a.5.5,0,0,1-.5-.5V215.9a.5.5,0,0,1,.5-.5.5.5,0,0,1,.5.5v6.87A.5.5,0,0,1,103.5,223.27Z" fill="#e6e7e8"/><path d="M268.44,223.76a.5.5,0,0,1-.44-.27l-4.2-7.84a.5.5,0,1,1,.89-.47l4.19,7.84a.5.5,0,0,1-.21.68A.46.46,0,0,1,268.44,223.76Z" fill="#e6e7e8"/><path d="M114.3,225.73a.49.49,0,0,1-.37-.16.5.5,0,0,1,0-.71l5.41-4.8a.5.5,0,0,1,.7,0,.5.5,0,0,1,0,.71l-5.41,4.8A.5.5,0,0,1,114.3,225.73Z" fill="#e6e7e8"/><path d="M209.86,226.9a.5.5,0,0,1-.41-.22.49.49,0,0,1,.13-.69l5.07-3.47a.5.5,0,0,1,.69.14.49.49,0,0,1-.13.69l-5.06,3.46A.52.52,0,0,1,209.86,226.9Z" fill="#e6e7e8"/><path d="M151.41,146.63a.53.53,0,0,1-.3-.09.51.51,0,0,1-.11-.7l43-59.56a.5.5,0,0,1,.69-.11.5.5,0,0,1,.12.7l-43,59.55A.49.49,0,0,1,151.41,146.63Z" fill="#e6e7e8"/><path d="M295.39,261.46a.51.51,0,0,1-.31-.11.5.5,0,0,1-.09-.7l73.84-95.12a.5.5,0,1,1,.79.62l-73.84,95.11A.49.49,0,0,1,295.39,261.46Z" fill="#e6e7e8"/><path d="M115.22,254.06a.52.52,0,0,1-.29-.09.5.5,0,0,1-.12-.7l53.58-75a.51.51,0,0,1,.7-.11.5.5,0,0,1,.11.69l-53.57,75A.51.51,0,0,1,115.22,254.06Z" fill="#e6e7e8"/><path d="M51.91,254.06a.5.5,0,0,1-.41-.79l49-67.45a.5.5,0,0,1,.7-.11.51.51,0,0,1,.11.7l-49,67.44A.49.49,0,0,1,51.91,254.06Z" fill="#e6e7e8"/><path d="M175,210.58a.47.47,0,0,1-.28-.09.49.49,0,0,1-.13-.69l24.79-35.54a.5.5,0,0,1,.82.58l-24.79,35.53A.48.48,0,0,1,175,210.58Z" fill="#e6e7e8"/><path d="M229.76,175.05a.5.5,0,0,1-.29-.09.49.49,0,0,1-.11-.7L250,145.84a.5.5,0,0,1,.81.58l-20.65,28.42A.48.48,0,0,1,229.76,175.05Z" fill="#e6e7e8"/><path d="M126.76,183.36a.53.53,0,0,1-.27-.08.5.5,0,0,1-.15-.69l16.27-25.17a.49.49,0,0,1,.69-.15.5.5,0,0,1,.15.69l-16.27,25.17A.49.49,0,0,1,126.76,183.36Z" fill="#e6e7e8"/><path d="M306.16,59.87h0c-24.91-1.92-26.18-13-26.22-13.43a.51.51,0,0,1,.46-.54.51.51,0,0,1,.54.45c0,.16,1.37,10.68,25.29,12.52a.5.5,0,0,1,0,1Z" fill="#231f20"/><path d="M361.39,56.73c-11.23,0-18.61-3.69-23.11-7.23a27.16,27.16,0,0,1-8.47-10.75.5.5,0,0,1,.93-.35c.09.22,8.64,22.06,40.85,16.39a.51.51,0,0,1,.58.41.5.5,0,0,1-.4.58A60.34,60.34,0,0,1,361.39,56.73Z" fill="#231f20"/></g></svg>