<svg xmlns="http://www.w3.org/2000/svg" viewBox="0 0 400 300"><g id="_254_snow_flatline" data-name="#254_snow_flatline"><rect x="27.9" y="30.75" width="343.78" height="238.5" fill="#fff"/><path d="M371.68,30.75v238.5H27.9V30.75H371.68m0-1H27.9a1,1,0,0,0-1,1v238.5a1,1,0,0,0,1,1H371.68a1,1,0,0,0,1-1V30.75a1,1,0,0,0-1-1Z" fill="#231f20"/><polygon points="371.68 123.25 370.75 123.71 371.68 123.71 371.68 147.44 339.67 147.44 350.3 105.2 355.38 104.47 350.86 103 361.61 60.27 369.47 91.52 365.58 94.19 370.15 94.19 371.68 100.28 371.68 123.25" fill="#4ea0ae"/><polygon points="131.38 177.29 63.25 177.29 79.76 111.71 87.63 110.57 80.62 108.3 97.32 41.96 109.52 90.47 103.47 94.63 110.57 94.63 120.91 135.73 111.51 140.45 122.1 140.45 131.38 177.29" fill="#4ea0ae"/><polygon points="325.13 176.68 266.53 176.68 280.72 120.27 287.5 119.28 281.47 117.33 295.83 60.27 306.33 101.99 301.12 105.57 307.23 105.57 316.13 140.93 308.04 144.98 317.15 144.98 325.13 176.68" fill="#4ea0ae"/><polygon points="115.38 207.44 161.02 207.44 149.96 163.51 144.69 162.75 149.38 161.23 138.2 116.79 130.02 149.28 134.08 152.07 129.32 152.07 122.39 179.6 128.69 182.76 121.6 182.76 115.38 207.44" fill="#4ea0ae"/><polygon points="79.37 199.57 27.9 199.57 27.9 135.55 28.16 134.52 35.97 133.38 29.02 131.13 45.58 65.32 57.69 113.44 51.68 117.57 58.73 117.57 68.99 158.34 59.66 163.02 70.17 163.02 79.37 199.57" fill="#4ea0ae"/><path d="M371.68,269.25V136.35s-37.23,7-63.63,18.25c-60.86,25.86-66,47.79-94.85,48.51s-64.26-22.65-102-35.08S27.9,150,27.9,150V269.25Z" fill="#fff"/><path d="M371.68,136.35v132.9H27.9V150s45.64,5.61,83.34,18c37.13,12.24,72.06,35.1,100.65,35.1l1.31,0c28.82-.72,34-22.65,94.85-48.51,26.4-11.22,63.63-18.25,63.63-18.25m0,132.9h0m0,0v0m0-133.9-.18,0c-.38.07-37.65,7.18-63.84,18.31a284.88,284.88,0,0,0-58.31,32.86c-13,9.16-21.57,15.21-36.17,15.57l-1.29,0c-17.89,0-38.59-9.19-60.5-18.92-12.87-5.71-26.18-11.62-39.84-16.13C74.19,154.77,28.48,149.06,28,149H27.9a1,1,0,0,0-.66.25,1,1,0,0,0-.34.75V269.25a1,1,0,0,0,1,1H371.45a.85.85,0,0,0,.23,0,1,1,0,0,0,1-.93s0-.07,0-.1,0-.05,0-.07V136.35a1,1,0,0,0-1-1Zm0,134.9h0Zm0,0h0Z" fill="#231f20"/><path d="M196.32,231a.44.44,0,0,1-.24-.07C180,222,154.41,214.35,136.41,218.59a.5.5,0,0,1-.23-1c18.26-4.29,44.1,3.45,60.38,12.45a.5.5,0,0,1-.24.94Z" fill="#231f20"/><path d="M183.36,149.79a.93.93,0,0,1-.46-.12c-.15-.08-.57-.35-1.89-1.2-4.55-2.95-16.63-10.79-21.11-12.54a18.05,18.05,0,0,0-3-.84c-2.65-.56-5.39-1.15-11.23-5.93a1,1,0,0,1-.14-1.41,1,1,0,0,1,1.4-.14c5.48,4.47,7.86,5,10.39,5.53a19,19,0,0,1,3.34.93c4.67,1.82,16.87,9.74,21.47,12.72,1,.63,1.6,1,1.75,1.12a1,1,0,0,1-.49,1.88Z" fill="#231f20"/><path d="M173.33,144h0c-.13,0-13-.54-22.21-2.41a1,1,0,0,1,.41-2c9,1.84,21.75,2.37,21.88,2.38a1,1,0,0,1,1,1A1,1,0,0,1,173.33,144Z" fill="#231f20"/><path d="M161.69,136.63a1,1,0,0,1-.81-.41L153.46,126a1,1,0,0,1,.22-1.4,1,1,0,0,1,1.4.23l7.42,10.21a1,1,0,0,1-.81,1.58Z" fill="#231f20"/><path d="M171.08,142.11a1,1,0,0,1-.88-.54l-4.78-9.18a1,1,0,0,1,.43-1.35,1,1,0,0,1,1.34.42l4.78,9.19a1,1,0,0,1-.43,1.34A.93.93,0,0,1,171.08,142.11Z" fill="#231f20"/><path d="M146.67,134.8c-.67,0-.8-.08-.95-.18a1,1,0,0,1-.28-1.39,1,1,0,0,1,1.06-.42c.59,0,3.61-.24,6.27-.52a1,1,0,0,1,.21,2C149.23,134.67,147.51,134.8,146.67,134.8Z" fill="#231f20"/><path d="M225.16,149.66a1,1,0,0,1-.77-1.63c.11-.13.46-.49,1.55-1.62,3.77-3.89,13.8-14.22,16.38-18.27a18.1,18.1,0,0,0,1.42-2.81c1.07-2.49,2.18-5.06,8-9.87A1,1,0,1,1,253,117c-5.45,4.5-6.41,6.74-7.43,9.12a21,21,0,0,1-1.57,3.09c-2.69,4.23-12.82,14.67-16.63,18.6-.81.83-1.34,1.37-1.45,1.5A1,1,0,0,1,225.16,149.66Z" fill="#231f20"/><path d="M232.84,141a1,1,0,0,1-.24,0,1,1,0,0,1-.74-1.21c0-.12,3.06-12.67,6.68-21.31a1,1,0,0,1,1.84.77c-3.55,8.49-6.54,20.89-6.57,21A1,1,0,0,1,232.84,141Z" fill="#231f20"/><path d="M242.27,131a1,1,0,0,1-.42-1.9l11.46-5.31a1,1,0,0,1,.84,1.82l-11.46,5.3A1,1,0,0,1,242.27,131Z" fill="#231f20"/><path d="M235.08,139.1a1,1,0,0,1-.28-2l9.94-2.9a1,1,0,0,1,.56,1.92l-9.94,2.9A.9.9,0,0,1,235.08,139.1Z" fill="#231f20"/><path d="M246.28,122.76h-.09a1,1,0,0,1-.9-1.09c.62-6.73.78-6.89,1.08-7.19a1,1,0,0,1,1.41,0,1,1,0,0,1,.21,1.12c-.14.59-.47,3.6-.71,6.26A1,1,0,0,1,246.28,122.76Z" fill="#231f20"/><path d="M232.82,164.41a29.48,29.48,0,0,0,.23-3.66,30.34,30.34,0,1,0-60.67,0,29.48,29.48,0,0,0,.23,3.66,42.51,42.51,0,1,0,60.21,0Z" fill="#fff"/><path d="M202.71,237.42a43,43,0,0,1-30.63-73.19,30,30,0,0,1-.2-3.48,30.84,30.84,0,1,1,61.67,0,32.22,32.22,0,0,1-.2,3.48,43,43,0,0,1-30.64,73.19Zm0-106.51a29.86,29.86,0,0,0-29.83,29.84,30.2,30.2,0,0,0,.22,3.6.5.5,0,0,1-.14.42,42,42,0,1,0,59.51,0,.5.5,0,0,1-.14-.42,29.82,29.82,0,0,0-29.62-33.44Z" fill="#231f20"/><circle cx="202.72" cy="122.46" r="16.71" fill="#fff"/><path d="M202.71,139.67a17.21,17.21,0,1,1,17.21-17.21A17.23,17.23,0,0,1,202.71,139.67Zm0-33.42a16.21,16.21,0,1,0,16.21,16.21A16.22,16.22,0,0,0,202.71,106.25Z" fill="#231f20"/><path d="M232.82,164.41s-2.95,8-17,10.77" fill="#fff"/><path d="M215.81,175.68a.5.5,0,0,1-.1-1c13.63-2.72,16.62-10.37,16.64-10.45A.5.5,0,0,1,233,164a.49.49,0,0,1,.29.64c-.12.33-3.21,8.25-17.38,11.08Z" fill="#231f20"/><circle cx="202.72" cy="147.44" r="2.33" fill="#231f20"/><circle cx="202.72" cy="158.58" r="2.33" fill="#231f20"/><circle cx="202.72" cy="169.71" r="2.33" fill="#231f20"/><rect x="184.86" y="105.4" width="21.09" height="4.98" rx="1.98" transform="translate(-27.42 94.74) rotate(-25.53)" fill="#231f20"/><path d="M186.94,88.26h6.91a3.54,3.54,0,0,1,3.54,3.54v14.74a0,0,0,0,1,0,0h-14a0,0,0,0,1,0,0V91.8A3.54,3.54,0,0,1,186.94,88.26Z" transform="translate(-23.39 91.55) rotate(-25.53)" fill="#231f20"/><path d="M200.63,127.36s-4.36-1.74-3.47-5.58,5.2-4.7,5.2-4.7L213.68,122Z" fill="#4ea0ae"/><circle cx="192.36" cy="117.81" r="1.02" fill="#231f20"/><circle cx="209.88" cy="114.37" r="1.02" fill="#231f20"/><path d="M186.6,109.83a.5.5,0,0,1-.21-1l14-6.7a.5.5,0,1,1,.43.9l-14,6.7A.42.42,0,0,1,186.6,109.83Z" fill="#fff"/><path d="M153.51,240.37c34.91-20.89,80.88-28.79,116.82-5.84" fill="#fff"/><path d="M153.51,240.87a.49.49,0,0,1-.25-.92c31.56-18.89,79-30.35,117.34-5.84a.5.5,0,0,1-.54.84c-38-24.26-85-12.88-116.29,5.85A.48.48,0,0,1,153.51,240.87Z" fill="#231f20"/><path d="M81.59,213.18a.45.45,0,0,1-.31-.11A41.17,41.17,0,0,0,58,204.14a.5.5,0,0,1,.05-1,42.18,42.18,0,0,1,23.88,9.15.49.49,0,0,1,.07.7A.48.48,0,0,1,81.59,213.18Z" fill="#e6e7e8"/><path d="M312.23,213.14l9.66-43.29,5.11-.75-4.55-1.47,10.84-43.07,7.92,31.49-3.93,2.71h4.61l6.72,26.68-6.11,3.06h6.88l2.07,8.22S321,208.8,312.23,213.14Z" fill="#4ea0ae"/><path d="M302.61,220.85s20.21-28.08,59.24-23.7" fill="#fff"/><path d="M302.61,221.35a.53.53,0,0,1-.3-.09.51.51,0,0,1-.11-.7c.2-.28,20.83-28.27,59.71-23.91a.5.5,0,0,1,.44.55.51.51,0,0,1-.55.45c-38.28-4.31-58.59,23.21-58.79,23.49A.49.49,0,0,1,302.61,221.35Z" fill="#231f20"/><path d="M299.63,252.81a.52.52,0,0,1-.38-.17.51.51,0,0,1,.06-.71,32.49,32.49,0,0,1,23.13-7.75.5.5,0,0,1,.47.53.51.51,0,0,1-.53.47A31.42,31.42,0,0,0,300,252.69.52.52,0,0,1,299.63,252.81Z" fill="#e6e7e8"/><path d="M220.2,46.71c-2.57,0-2.58,4,0,4S222.78,46.71,220.2,46.71Z" fill="#e6e7e8"/><path d="M147.39,78.81c-4.06,0-4.07,6.31,0,6.31S151.46,78.81,147.39,78.81Z" fill="#e6e7e8"/><path d="M63.25,87.28c-2.57,0-2.57,4,0,4S65.83,87.28,63.25,87.28Z" fill="#e6e7e8"/><path d="M183.37,62.32c-3.86,0-3.87,6,0,6S187.23,62.32,183.37,62.32Z" fill="#e6e7e8"/><path d="M234,73.75a2.78,2.78,0,0,0-2.18.93,2.94,2.94,0,0,0-.54,1,3.21,3.21,0,0,0,1,3.55,2.66,2.66,0,0,0,1.09.49,3.55,3.55,0,0,0,.68.07C237.84,79.75,237.84,73.75,234,73.75Z" fill="#e6e7e8"/><path d="M262.6,97.4a2.76,2.76,0,0,0-2.17.93,3,3,0,0,0-.54,1,3.18,3.18,0,0,0,.95,3.54,2.68,2.68,0,0,0,1.08.49,3.73,3.73,0,0,0,.68.07C266.46,103.4,266.47,97.4,262.6,97.4Z" fill="#e6e7e8"/><path d="M334.13,93.35a2,2,0,0,0-.52-.81,2.83,2.83,0,0,0-1.77-.73l-.66.09a2.53,2.53,0,0,0-1.11.64l-.39.51a2.53,2.53,0,0,0-.34,1.26v.85a1.88,1.88,0,0,0,.22,1,1.83,1.83,0,0,0,.51.8,1.85,1.85,0,0,0,.81.52,1.88,1.88,0,0,0,1,.22l.67-.09a2.52,2.52,0,0,0,1.1-.65l.39-.5a2.43,2.43,0,0,0,.34-1.26v-.85A1.88,1.88,0,0,0,334.13,93.35Z" fill="#e6e7e8"/><path d="M314.52,58.88a1.85,1.85,0,0,0-.52-.8,1.82,1.82,0,0,0-.8-.52,1.8,1.8,0,0,0-1-.21l-.66.09a2.36,2.36,0,0,0-1.1.64l-.4.5a2.54,2.54,0,0,0-.34,1.27v.84a2.83,2.83,0,0,0,.74,1.77,2,2,0,0,0,.8.52,2,2,0,0,0,1,.21l.67-.09a2.5,2.5,0,0,0,1.1-.64l.39-.51a2.43,2.43,0,0,0,.34-1.26v-.84A1.89,1.89,0,0,0,314.52,58.88Z" fill="#e6e7e8"/><path d="M348.59,44.52c-3.21,0-3.22,5,0,5S351.82,44.52,348.59,44.52Z" fill="#e6e7e8"/><path d="M127.29,47.4c-3.86,0-3.87,6,0,6S131.16,47.4,127.29,47.4Z" fill="#e6e7e8"/><path d="M39.44,41.49c-3.86,0-3.87,6,0,6S43.31,41.49,39.44,41.49Z" fill="#e6e7e8"/><path d="M75.88,57.27c-3.86,0-3.87,6,0,6S79.75,57.27,75.88,57.27Z" fill="#e6e7e8"/><path d="M276.8,51.4c-2.58,0-2.58,4,0,4S279.37,51.4,276.8,51.4Z" fill="#e6e7e8"/><path d="M98.57,185.93c-3.86,0-3.87,6,0,6S102.44,185.93,98.57,185.93Z" fill="#e6e7e8"/><path d="M111.24,235.42c-3.22,0-3.22,5,0,5S114.46,235.42,111.24,235.42Z" fill="#e6e7e8"/><path d="M276.8,198.25c-3.22,0-3.23,5,0,5S280,198.25,276.8,198.25Z" fill="#e6e7e8"/><path d="M79.41,254.59a.5.5,0,0,1-.17-1,62.58,62.58,0,0,1,38.63-1,.5.5,0,1,1-.29,1,61.54,61.54,0,0,0-38,1A.51.51,0,0,1,79.41,254.59Z" fill="#e6e7e8"/></g></svg>